# Blender v3.2.2 OBJ File: 'Guide.blend'
# www.blender.org
mtllib Antorcha.mtl
o Antorcha_Cube.004
v 0.000000 -2.231699 -0.000594
v 0.160482 -0.256552 0.138060
v 0.000000 -2.014054 0.089672
v 0.160482 -0.256552 -0.139247
v 0.000000 -2.014054 -0.091336
v 0.000000 -0.256552 -0.139247
v 0.102221 -2.014054 -0.090824
v 0.000000 -0.256552 0.138060
v 0.160482 -0.408866 -0.139247
v 0.160482 -0.408866 0.138060
v 0.000000 -0.408866 0.138060
v 0.000000 -0.408866 -0.139247
v 0.000000 -0.256552 -0.288950
v 0.266338 -0.256552 -0.245103
v 0.266338 -0.256552 0.243916
v 0.000000 -0.256552 0.287763
v 0.266338 -0.408866 -0.245103
v 0.266338 -0.408866 0.243916
v 0.000000 -0.408866 0.287763
v 0.000000 -0.408866 -0.288950
v 0.000000 0.035025 -0.139247
v 0.160482 0.035025 -0.139247
v 0.160482 0.035025 0.138060
v 0.000000 0.035025 0.138060
v 0.000000 0.035025 -0.288950
v 0.266338 0.035025 -0.245103
v 0.266338 0.035025 0.243916
v 0.000000 0.035025 0.287763
v 0.103226 -2.014054 0.090497
v -0.160482 -0.256552 0.138060
v -0.160482 -0.256552 -0.139247
v -0.102221 -2.014054 -0.090824
v -0.160482 -0.408866 -0.139247
v -0.160482 -0.408866 0.138060
v -0.266338 -0.256552 -0.245103
v -0.266338 -0.256552 0.243916
v -0.266338 -0.408866 -0.245103
v -0.266338 -0.408866 0.243916
v -0.160482 0.035025 -0.139247
v -0.160482 0.035025 0.138060
v -0.266338 0.035025 -0.245103
v -0.266338 0.035025 0.243916
v -0.103226 -2.014054 0.090497
vt 0.654477 0.952248
vt 0.716842 0.947455
vt 0.690215 0.980792
vt 0.666617 0.900185
vt 0.713226 0.817921
vt 0.726009 0.905967
vt 0.592398 0.352751
vt 0.690594 0.051638
vt 0.609416 0.371290
vt 0.272246 0.474374
vt 0.281080 0.484500
vt 0.271020 0.481630
vt 0.587173 0.963707
vt 0.534757 0.940676
vt 0.579966 0.930981
vt 0.543180 0.397645
vt 0.563441 0.339722
vt 0.544945 0.339606
vt 0.534757 0.908337
vt 0.580202 0.904810
vt 0.663320 0.926586
vt 0.205510 0.536828
vt 0.285146 0.477743
vt 0.318285 0.536828
vt 0.641960 0.819956
vt 0.655998 0.850136
vt 0.577665 0.835983
vt 0.572377 0.861971
vt 0.534757 0.854369
vt 0.534757 0.823573
vt 0.175217 0.449029
vt 0.654841 0.043037
vt 0.554278 0.032658
vt 0.590516 0.034161
vt 0.352671 0.947455
vt 0.415037 0.952248
vt 0.379298 0.980792
vt 0.356287 0.817920
vt 0.402896 0.900185
vt 0.343505 0.905967
vt 0.417061 0.043320
vt 0.496780 0.349843
vt 0.478668 0.367314
vt 0.284903 0.469861
vt 0.274725 0.467445
vt 0.482340 0.963707
vt 0.534757 0.978444
vt 0.526476 0.338598
vt 0.489547 0.930981
vt 0.406194 0.926586
vt 0.489311 0.904810
vt 0.244578 0.387260
vt 0.342947 0.442412
vt 0.427553 0.819956
vt 0.390462 0.783320
vt 0.491849 0.835983
vt 0.413515 0.850135
vt 0.497137 0.861971
vt 0.453271 0.036907
vt 0.340475 0.492196
vt 0.679052 0.783320
vt 0.518016 0.031956
vn 0.0000 -1.0000 0.0000
vn 0.1624 0.0000 0.9867
vn -0.0080 -0.0301 0.9995
vn 0.0000 1.0000 0.0000
vn -0.0074 -0.3831 0.9237
vn 0.9043 -0.4268 -0.0050
vn 0.0046 -0.3848 -0.9230
vn 0.1624 0.0000 -0.9867
vn 1.0000 0.0000 0.0000
vn -1.0000 0.0000 0.0000
vn 0.0000 0.0000 -1.0000
vn 0.0000 0.0000 1.0000
vn 0.9994 -0.0355 -0.0055
vn 0.0000 -0.0302 -0.9995
vn -0.1624 0.0000 0.9867
vn 0.0080 -0.0301 0.9995
vn 0.0074 -0.3831 0.9237
vn -0.9043 -0.4268 -0.0050
vn -0.0046 -0.3848 -0.9230
vn -0.1624 0.0000 -0.9867
vn -0.9994 -0.0355 -0.0055
vn -0.0050 -0.0298 -0.9995
vn 0.0000 -0.0296 0.9996
vn 0.9993 -0.0363 0.0000
vn 0.0050 -0.0298 -0.9995
vn -0.9993 -0.0363 0.0000
usemtl Material.002
s off
f 10/1/1 19/2/1 11/3/1
f 15/4/2 28/5/2 16/6/2
f 29/7/3 11/8/3 3/9/3
f 6/10/4 2/11/4 4/12/4
f 9/13/1 20/14/1 17/15/1
f 1/16/5 29/7/5 3/9/5
f 1/16/6 7/17/6 29/7/6
f 1/16/7 5/18/7 7/17/7
f 13/19/8 17/15/8 20/14/8
f 14/20/9 18/21/9 17/15/9
f 15/4/2 19/2/2 18/21/2
f 2/11/10 22/22/10 4/12/10
f 9/13/1 18/21/1 10/1/1
f 8/23/11 23/24/11 2/11/11
f 23/25/4 28/5/4 27/26/4
f 22/27/4 27/26/4 26/28/4
f 22/27/4 25/29/4 21/30/4
f 13/19/8 26/28/8 14/20/8
f 4/12/12 21/31/12 6/10/12
f 14/20/9 27/26/9 15/4/9
f 7/17/13 10/32/13 29/7/13
f 7/17/14 12/33/14 9/34/14
f 19/35/1 34/36/1 11/37/1
f 28/38/15 36/39/15 16/40/15
f 11/41/16 43/42/16 3/43/16
f 30/44/4 6/10/4 31/45/4
f 33/46/1 20/14/1 12/47/1
f 1/16/17 3/43/17 43/42/17
f 1/16/18 43/42/18 32/48/18
f 1/16/19 32/48/19 5/18/19
f 37/49/20 13/19/20 20/14/20
f 38/50/10 35/51/10 37/49/10
f 19/35/15 36/39/15 38/50/15
f 39/52/9 30/44/9 31/45/9
f 38/50/1 33/46/1 34/36/1
f 40/53/11 8/23/11 30/44/11
f 40/54/4 28/38/4 24/55/4
f 39/56/4 42/57/4 40/54/4
f 25/29/4 39/56/4 21/30/4
f 41/58/20 13/19/20 35/51/20
f 21/31/12 31/45/12 6/10/12
f 42/57/10 35/51/10 36/39/10
f 34/59/21 32/48/21 43/42/21
f 32/48/22 12/33/22 5/18/22
f 10/1/1 18/21/1 19/2/1
f 15/4/2 27/26/2 28/5/2
f 29/7/23 10/32/23 11/8/23
f 6/10/4 8/23/4 2/11/4
f 9/13/1 12/47/1 20/14/1
f 13/19/8 14/20/8 17/15/8
f 14/20/9 15/4/9 18/21/9
f 15/4/2 16/6/2 19/2/2
f 2/11/10 23/24/10 22/22/10
f 9/13/1 17/15/1 18/21/1
f 8/23/11 24/60/11 23/24/11
f 23/25/4 24/61/4 28/5/4
f 22/27/4 23/25/4 27/26/4
f 22/27/4 26/28/4 25/29/4
f 13/19/8 25/29/8 26/28/8
f 4/12/12 22/22/12 21/31/12
f 14/20/9 26/28/9 27/26/9
f 7/17/24 9/34/24 10/32/24
f 7/17/25 5/18/25 12/33/25
f 19/35/1 38/50/1 34/36/1
f 28/38/15 42/57/15 36/39/15
f 11/41/23 34/59/23 43/42/23
f 30/44/4 8/23/4 6/10/4
f 33/46/1 37/49/1 20/14/1
f 37/49/20 35/51/20 13/19/20
f 38/50/10 36/39/10 35/51/10
f 19/35/15 16/40/15 36/39/15
f 39/52/9 40/53/9 30/44/9
f 38/50/1 37/49/1 33/46/1
f 40/53/11 24/60/11 8/23/11
f 40/54/4 42/57/4 28/38/4
f 39/56/4 41/58/4 42/57/4
f 25/29/4 41/58/4 39/56/4
f 41/58/20 25/29/20 13/19/20
f 21/31/12 39/52/12 31/45/12
f 42/57/10 41/58/10 35/51/10
f 34/59/26 33/62/26 32/48/26
f 32/48/14 33/62/14 12/33/14
