# Blender v3.2.2 OBJ File: 'Guide.blend'
# www.blender.org
mtllib Letrero.mtl
o Letreto_Cube
v -0.716205 1.093930 0.134639
v -0.404695 2.569871 0.134639
v -0.716205 1.093930 -0.134640
v -0.404695 2.569871 -0.134640
v 0.985479 0.880891 0.134639
v 1.425403 2.502301 0.134639
v 0.985479 0.880891 -0.134640
v 1.425403 2.502301 -0.134640
v 0.646149 0.827865 -0.134640
v 0.315548 0.830689 -0.134640
v -0.006200 0.890166 -0.134640
v -0.354502 0.824134 -0.134640
v 0.024686 2.900524 -0.134640
v 0.369509 2.773724 -0.134640
v 0.781470 2.906569 -0.134640
v 1.062135 2.656162 -0.134640
v -0.354502 0.824134 0.134639
v -0.006200 0.890166 0.134639
v 0.315548 0.830689 0.134639
v 0.646149 0.827865 0.134639
v 1.062135 2.656162 0.134639
v 0.781470 2.906569 0.134639
v 0.369509 2.773724 0.134639
v 0.024686 2.900524 0.134639
v 0.142719 -0.104261 -0.134640
v -0.179029 -0.044784 -0.134640
v -0.179029 -0.044784 0.134639
v 0.142719 -0.104261 0.134639
vt 0.869128 0.337748
vt 0.929391 0.000163
vt 0.929391 0.337748
vt 0.086819 0.466794
vt 0.021560 0.074519
vt 0.093412 0.047226
vt 0.808538 0.473004
vt 0.868801 0.848986
vt 0.808538 0.848986
vt 0.716540 0.508655
vt 0.808211 0.128709
vt 0.808211 0.466294
vt 0.868801 0.925847
vt 0.808538 0.925847
vt 0.808538 0.121447
vt 0.868801 0.000163
vt 0.868801 0.121447
vt 0.808538 0.384715
vt 0.868801 0.473004
vt 0.808538 0.300538
vt 0.868801 0.384715
vt 0.868801 0.203669
vt 0.868801 0.300538
vt 0.808538 0.203668
vt 0.929391 0.438733
vt 0.929391 0.518070
vt 0.869128 0.438734
vt 0.060426 0.508982
vt 0.133652 0.721763
vt 0.060427 0.721763
vt 0.868801 0.999837
vt 0.808538 0.999837
vt 0.425747 0.434299
vt 0.491006 0.042024
vt 0.497599 0.461592
vt 0.570122 0.476253
vt 0.648104 0.048291
vt 0.643324 0.478099
vt 0.729471 0.036462
vt 0.404024 0.380109
vt 0.312353 0.000163
vt 0.404024 0.042524
vt 0.325284 0.472356
vt 0.239137 0.030719
vt 0.243917 0.460527
vt 0.165935 0.032565
vt 0.340692 0.508982
vt 0.267467 0.569245
vt 0.267467 0.508982
vt 0.193915 0.508982
vt 0.133652 0.508982
vt 0.267140 0.508982
vt 0.193915 0.721763
vt 0.000163 0.721763
vt 0.000163 0.508982
vt 0.869128 0.000163
vt 0.000163 0.449892
vt 0.808538 0.000163
vt 0.869128 0.518070
vt 0.404351 0.058927
vt 0.564037 0.000163
vt 0.159849 0.508655
vt 0.340692 0.569245
vt 0.267140 0.721763
vn -0.9784 0.2065 0.0000
vn 0.0000 -0.0000 -1.0000
vn 0.9651 -0.2619 0.0000
vn 0.0000 0.0000 1.0000
vn 0.1544 -0.9880 0.0000
vn -0.6101 0.7923 0.0000
vn 0.3900 0.9208 0.0000
vn 0.6657 0.7462 0.0000
vn -0.3069 0.9517 0.0000
vn 0.3451 0.9386 0.0000
vn -0.5979 -0.8016 0.0000
vn 0.1863 -0.9825 0.0000
vn -0.0085 -1.0000 0.0000
vn -0.1818 -0.9833 0.0000
vn -0.9833 0.1818 0.0000
vn 0.9833 -0.1818 0.0000
usemtl Letrero
s off
f 1/1/1 4/2/1 3/3/1
f 16/4/2 7/5/2 9/6/2
f 8/7/3 5/8/3 7/9/3
f 17/10/4 2/11/4 1/12/4
f 7/9/5 20/13/5 9/14/5
f 13/15/6 2/16/6 24/17/6
f 16/18/7 6/19/7 8/7/7
f 15/20/8 21/21/8 16/18/8
f 15/20/9 23/22/9 22/23/9
f 14/24/10 24/17/10 23/22/10
f 12/25/11 1/1/11 3/3/11
f 11/26/12 17/27/12 12/25/12
f 19/28/4 27/29/4 28/30/4
f 9/14/13 19/31/13 10/32/13
f 5/33/4 21/34/4 20/35/4
f 21/34/4 19/36/4 20/35/4
f 19/36/4 23/37/4 18/38/4
f 18/38/4 24/39/4 17/10/4
f 4/40/2 12/41/2 3/42/2
f 13/43/2 11/44/2 12/41/2
f 14/45/2 10/46/2 11/44/2
f 10/46/2 16/4/2 9/6/2
f 25/47/14 27/48/14 26/49/14
f 11/50/15 27/29/15 18/51/15
f 10/52/2 26/53/2 11/50/2
f 19/28/16 25/54/16 10/55/16
f 1/1/1 2/56/1 4/2/1
f 16/4/2 8/57/2 7/5/2
f 8/7/3 6/19/3 5/8/3
f 17/10/4 24/39/4 2/11/4
f 7/9/5 5/8/5 20/13/5
f 13/15/6 4/58/6 2/16/6
f 16/18/7 21/21/7 6/19/7
f 15/20/8 22/23/8 21/21/8
f 15/20/9 14/24/9 23/22/9
f 14/24/10 13/15/10 24/17/10
f 12/25/11 17/27/11 1/1/11
f 11/26/12 18/59/12 17/27/12
f 19/28/4 18/51/4 27/29/4
f 9/14/13 20/13/13 19/31/13
f 5/33/4 6/60/4 21/34/4
f 21/34/4 22/61/4 19/36/4
f 19/36/4 22/61/4 23/37/4
f 18/38/4 23/37/4 24/39/4
f 4/40/2 13/43/2 12/41/2
f 13/43/2 14/45/2 11/44/2
f 14/45/2 15/62/2 10/46/2
f 10/46/2 15/62/2 16/4/2
f 25/47/14 28/63/14 27/48/14
f 11/50/15 26/53/15 27/29/15
f 10/52/2 25/64/2 26/53/2
f 19/28/16 28/30/16 25/54/16
