# Blender v3.2.2 OBJ File: 'Guide.blend'
# www.blender.org
mtllib Fuego.mtl
o Fuego_Plane.001
v -0.491441 0.298656 -0.008152
v 0.566842 0.271279 -0.008152
v -0.478929 0.691853 0.008152
v 0.585833 0.638845 0.008152
v -0.326737 -0.051620 -0.008152
v 0.000000 -0.185505 -0.008152
v 0.381866 -0.043744 -0.008152
v 0.353882 0.933596 0.008152
v 0.007876 1.184382 0.008152
v -0.353159 0.932758 0.008152
v -0.491325 0.299826 -0.069956
v 0.566958 0.272450 -0.069956
v -0.478813 0.693023 -0.053652
v 0.585948 0.640015 -0.053652
v -0.326621 -0.050450 -0.069956
v 0.000116 -0.184335 -0.069956
v 0.381982 -0.042574 -0.069956
v 0.353998 0.934767 -0.053652
v 0.007991 1.185552 -0.053652
v -0.353043 0.933928 -0.053652
vt 0.450762 0.685182
vt 0.767000 0.290462
vt 0.657745 0.014492
vt 0.012612 0.127882
vt 0.124513 0.639676
vt 0.127284 0.044165
vt 0.372347 0.007591
vt 0.767081 0.291277
vt 0.450842 0.685997
vt 0.657826 0.015307
vt 0.012692 0.128696
vt 0.124593 0.640491
vt 0.025310 0.621203
vt 0.372427 0.008406
vt 0.127364 0.044980
vt 0.235332 0.632086
vt 0.235252 0.631271
vt 0.751006 0.521797
vt 0.025229 0.620389
vt 0.750925 0.520983
vn -0.0271 0.0159 -0.9995
vn 0.0373 0.0176 -0.9991
vn 0.0069 0.0167 -0.9998
vn -0.0061 0.0165 -0.9998
vn 0.0271 -0.0159 0.9995
vn 0.0842 -0.0440 0.9955
vn -0.0069 -0.0167 0.9998
vn -0.0086 -0.0119 0.9999
vn 0.9049 0.4255 0.0097
vn -0.8623 0.5063 0.0080
vn -0.5868 -0.8096 -0.0164
vn 0.3791 0.9252 0.0182
vn -0.9987 0.0516 -0.0009
vn 0.5717 -0.8203 -0.0145
vn -0.3480 0.9373 0.0171
vn 0.8864 -0.4628 -0.0071
vn 0.9995 -0.0319 0.0013
vn -0.7858 -0.6184 -0.0132
vn 0.0528 0.0415 -0.9977
vn -0.0842 0.0440 -0.9955
vn -0.0083 0.0119 -0.9999
vn 0.0086 0.0119 -0.9999
vn -0.0528 -0.0415 0.9977
vn -0.0373 -0.0176 0.9991
vn 0.0083 -0.0119 0.9999
vn 0.0061 -0.0165 0.9998
usemtl Fuego
s off
f 8/1/1 2/2/1 7/3/1
f 1/4/2 10/5/2 5/6/2
f 10/5/3 6/7/3 5/6/3
f 6/7/4 8/1/4 7/3/4
f 12/8/5 18/9/5 17/10/5
f 11/11/6 20/12/6 13/13/6
f 16/14/7 20/12/7 15/15/7
f 16/14/8 18/9/8 19/16/8
f 1/4/9 15/15/9 11/11/9
f 2/2/10 17/10/10 7/3/10
f 9/17/11 18/9/11 8/1/11
f 5/6/12 16/14/12 15/15/12
f 2/2/13 14/18/13 12/8/13
f 9/17/14 20/12/14 19/16/14
f 7/3/15 16/14/15 6/7/15
f 10/5/16 13/13/16 20/12/16
f 1/4/17 13/13/17 3/19/17
f 8/1/18 14/18/18 4/20/18
f 8/1/19 4/20/19 2/2/19
f 1/4/20 3/19/20 10/5/20
f 10/5/21 9/17/21 6/7/21
f 6/7/22 9/17/22 8/1/22
f 12/8/23 14/18/23 18/9/23
f 11/11/24 15/15/24 20/12/24
f 16/14/25 19/16/25 20/12/25
f 16/14/26 17/10/26 18/9/26
f 1/4/9 5/6/9 15/15/9
f 2/2/10 12/8/10 17/10/10
f 9/17/11 19/16/11 18/9/11
f 5/6/12 6/7/12 16/14/12
f 2/2/13 4/20/13 14/18/13
f 9/17/14 10/5/14 20/12/14
f 7/3/15 17/10/15 16/14/15
f 10/5/16 3/19/16 13/13/16
f 1/4/17 11/11/17 13/13/17
f 8/1/18 18/9/18 14/18/18
