# Blender v3.2.2 OBJ File: 'Guide.blend'
# www.blender.org
mtllib Puerta_Bano.mtl
o Puerta_Bano_Baño_Cube.002
v -0.843266 2.112952 0.923896
v -0.651287 2.112953 1.064683
v -1.382237 1.950035 2.061414
v -1.574215 1.950035 1.920628
v -0.112316 1.682717 -0.072835
v 0.079663 1.682717 0.067952
v -0.842194 -1.881472 0.922436
v -1.573143 -1.876263 1.919167
v -1.381165 -1.876263 2.059953
v -0.650215 -1.881472 1.063222
v -0.111244 -1.919411 -0.074296
v 0.080734 -1.919411 0.066491
vt 0.965862 0.000354
vt 0.950667 0.079925
vt 0.950667 0.000354
vt 0.965861 0.711858
vt 0.950667 0.795390
vt 0.950667 0.711858
vt 0.950667 0.403026
vt 0.965861 0.324136
vt 0.965861 0.403026
vt 0.950667 0.481953
vt 0.965861 0.481953
vt 0.649108 0.724955
vt 0.570219 0.480373
vt 0.649108 0.480743
vt 0.491338 0.707819
vt 0.570214 0.735316
vt 0.865898 0.563531
vt 0.787009 0.808114
vt 0.787004 0.553171
vt 0.965862 0.079925
vt 0.950667 0.324136
vt 0.708127 0.580668
vt 0.708121 0.810573
vt 0.965862 0.795390
vt 0.491331 0.477914
vt 0.865898 0.807744
vn 0.0773 -0.9914 -0.1054
vn -0.1944 -0.9444 0.2651
vn 0.0025 1.0000 -0.0034
vn 0.0181 0.9995 -0.0247
vn -0.8064 -0.0000 -0.5914
vn -0.5914 -0.0005 0.8064
vn 0.8064 0.0000 0.5914
vn 0.5914 0.0005 -0.8064
usemtl Bano
s 1
f 2/1/1 4/2/1 1/3/1
f 6/4/2 1/5/2 5/6/2
f 7/7/3 9/8/3 10/9/3
f 11/10/4 10/9/4 12/11/4
f 3/12/5 10/13/5 9/14/5
f 5/6/6 12/11/6 6/4/6
f 6/15/5 10/13/5 2/16/5
f 4/17/7 7/18/7 1/19/7
f 3/20/8 8/21/8 4/2/8
f 5/22/7 7/18/7 11/23/7
f 2/1/1 3/20/1 4/2/1
f 6/4/2 2/24/2 1/5/2
f 7/7/3 8/21/3 9/8/3
f 11/10/4 7/7/4 10/9/4
f 3/12/5 2/16/5 10/13/5
f 5/6/6 11/10/6 12/11/6
f 6/15/5 12/25/5 10/13/5
f 4/17/7 8/26/7 7/18/7
f 3/20/8 9/8/8 8/21/8
f 5/22/7 1/19/7 7/18/7
